<?xml version="1.0" encoding="utf-8"?>
<!-- Generator: Adobe Illustrator 25.0.1, SVG Export Plug-In . SVG Version: 6.00 Build 0)  -->
<svg version="1.1" id="Livello_1" xmlns="http://www.w3.org/2000/svg" xmlns:xlink="http://www.w3.org/1999/xlink" x="0px" y="0px"
	 viewBox="0 0 1792 1792" style="enable-background:new 0 0 1792 1792;" xml:space="preserve">
<style type="text/css">
	.st0{stroke:#000000;stroke-width:0.5;stroke-miterlimit:10;}
</style>
<path class="st0" d="M1521.1,889.7v318c0,79.3-28.2,147.2-84.5,203.5s-124.2,84.5-203.5,84.5h-832c-79.3,0-147.2-28.2-203.5-84.5
	s-84.5-124.2-84.5-203.5v-832c0-79.3,28.2-147.2,84.5-203.5s124.2-84.5,203.5-84.5h832c42,0,81,8.3,117,25c10,4.7,16,12.3,18,23
	c2,11.3-1,21-9,29l-49,49c-6.7,6.7-14.3,10-23,10c-2,0-5-0.7-9-2c-15.3-4-30.3-6-45-6h-832c-44,0-81.7,15.7-113,47s-47,69-47,113
	v832c0,44,15.7,81.7,47,113s69,47,113,47h832c44,0,81.7-15.7,113-47s47-69,47-113v-254c0-8.7,3-16,9-22l64-64c6.7-6.7,14.3-10,23-10
	c4,0,8,1,12,3C1514.5,866,1521.1,875.7,1521.1,889.7z M1703,441l-814,814c-16,16-35,24-57,24s-41-8-57-24L345,825
	c-16-16-24-35-24-57s8-41,24-57l110-110c16-16,35-24,57-24s41,8,57,24l263,263l647-647c16-16,35-24,57-24s41,8,57,24l110,110
	c16,16,24,35,24,57S1719,425,1703,441z"/>
</svg>
