<?xml version="1.0" encoding="utf-8"?>
<!-- Generator: Adobe Illustrator 25.0.1, SVG Export Plug-In . SVG Version: 6.00 Build 0)  -->
<svg version="1.1" id="Livello_1" xmlns="http://www.w3.org/2000/svg" xmlns:xlink="http://www.w3.org/1999/xlink" x="0px" y="0px"
	 viewBox="0 0 512 512" style="enable-background:new 0 0 512 512;" xml:space="preserve">
<g id="Layer_1">
</g>
<g id="Layer_2">
	<g>
		<g>
			<path d="M160.4,356.5h-24.7v-313c0-8.8-7.2-16-16-16s-16,7.2-16,16v313H79c-9.8,0-18.7,4-25.1,10.4c-6.4,6.4-10.4,15.3-10.4,25.1
				c0,19.6,15.9,35.5,35.5,35.5h24.7l0,0v41c0,8.8,7.2,16,16,16s16-7.2,16-16v-41l0,0h24.7c9.8,0,18.7-4,25.1-10.4
				c6.4-6.4,10.4-15.3,10.4-25.1C195.9,372.4,180,356.5,160.4,356.5z"/>
		</g>
		<g>
			<path d="M332.2,148.4c0-19.6-15.9-35.5-35.5-35.5H272V43.5c0-8.8-7.2-16-16-16s-16,7.2-16,16v69.4h-24.7c-9.8,0-18.7,4-25.1,10.4
				c-6.4,6.4-10.4,15.3-10.4,25.1c0,19.6,15.9,35.5,35.5,35.5H240v284.6c0,8.8,7.2,16,16,16s16-7.2,16-16V183.9h24.7
				c9.8,0,18.7-4,25.1-10.4C328.2,167.1,332.2,158.2,332.2,148.4z"/>
		</g>
		<g>
			<path d="M433,356.5h-24.7v-313c0-8.8-7.2-16-16-16s-16,7.2-16,16v313h-24.7c-9.8,0-18.7,4-25.1,10.4
				c-6.4,6.4-10.4,15.3-10.4,25.1c0,19.6,15.9,35.5,35.5,35.5h24.7l0,0v41c0,8.8,7.2,16,16,16s16-7.2,16-16v-41l0,0H433
				c9.8,0,18.7-4,25.1-10.4c6.4-6.4,10.4-15.3,10.4-25.1C468.5,372.4,452.6,356.5,433,356.5z"/>
		</g>
	</g>
</g>
</svg>
