<?xml version="1.0" encoding="utf-8"?>
<!-- Generator: Adobe Illustrator 25.0.1, SVG Export Plug-In . SVG Version: 6.00 Build 0)  -->
<svg version="1.1" id="Livello_1" xmlns="http://www.w3.org/2000/svg" xmlns:xlink="http://www.w3.org/1999/xlink" x="0px" y="0px"
	 viewBox="0 0 1792 1792" style="enable-background:new 0 0 1792 1792;" xml:space="preserve">
<g>
	<path d="M403,621l448,448c12,12.7,27,19,45,19s33-6.3,45-19l448-448c20.7-19.3,25.3-42.7,14-70c-11.3-26-31-39-59-39h-256V64
		c0-17.3-6.3-32.3-19-45s-27.7-19-45-19H768c-17.3,0-32.3,6.3-45,19s-19,27.7-19,45v448H448c-28,0-47.7,13-59,39
		C377.7,578.3,382.3,601.7,403,621z"/>
	<path d="M1700,1052c-18.7-18.7-41.3-28-68-28h-464l-136,136c-38.7,37.3-84,56-136,56s-97.3-18.7-136-56l-135-136H160
		c-26.7,0-49.3,9.3-68,28s-28,41.3-28,68v320c0,26.7,9.3,49.3,28,68s41.3,28,68,28h1472c26.7,0,49.3-9.3,68-28s28-41.3,28-68v-320
		C1728,1093.3,1718.7,1070.7,1700,1052z"/>
</g>
</svg>
