<?xml version="1.0" encoding="utf-8"?>
<!-- Generator: Adobe Illustrator 25.0.1, SVG Export Plug-In . SVG Version: 6.00 Build 0)  -->
<svg version="1.1" id="Layer_1" xmlns="http://www.w3.org/2000/svg" xmlns:xlink="http://www.w3.org/1999/xlink" x="0px" y="0px"
	 viewBox="0 0 64 64" style="enable-background:new 0 0 64 64;" xml:space="preserve">
<g>
	<path d="M44.5,20.7c0-6.9-5.6-12.5-12.5-12.5s-12.5,5.6-12.5,12.5c0,9.9,12.5,24.6,12.5,24.6S44.5,30.6,44.5,20.7z M25.8,20
		c0-3.4,2.8-6.2,6.2-6.2s6.2,2.8,6.2,6.2s-2.8,6.2-6.2,6.2S25.8,23.4,25.8,20z"/>
	<path d="M39.1,41c-1,1.5-2,2.8-2.8,3.8c7.9,0.5,13.1,2.2,15,3.5c-2.3,1.5-9,3.6-19.3,3.6s-17.1-2.1-19.3-3.6c1.9-1.3,7.1-3,15-3.5
		c-0.8-1-1.8-2.3-2.8-3.8c-9.7,1-16.8,3.8-16.8,7.2c0,4.2,10.7,7.6,23.9,7.6c13.2,0,23.9-3.4,23.9-7.6C55.9,44.8,48.8,41.9,39.1,41z
		"/>
</g>
</svg>
