<svg width="46" height="46" viewBox="0 0 46 46" fill="none" xmlns="http://www.w3.org/2000/svg">
<path fill-rule="evenodd" clip-rule="evenodd" d="M3.83325 5.83337C3.83325 4.7288 4.72868 3.83337 5.83325 3.83337H40.1666C41.2712 3.83337 42.1666 4.7288 42.1666 5.83337V17.1667C42.1666 18.2713 41.2712 19.1667 40.1666 19.1667H5.83325C4.72868 19.1667 3.83325 18.2713 3.83325 17.1667V5.83337Z" stroke="#FEBE4F" stroke-width="3" stroke-linecap="round" stroke-linejoin="round"/>
<path fill-rule="evenodd" clip-rule="evenodd" d="M3.83325 28.8334C3.83325 27.7288 4.72868 26.8334 5.83325 26.8334H40.1666C41.2712 26.8334 42.1666 27.7288 42.1666 28.8334V40.1667C42.1666 41.2713 41.2712 42.1667 40.1666 42.1667H5.83325C4.72868 42.1667 3.83325 41.2713 3.83325 40.1667V28.8334Z" stroke="#FEBE4F" stroke-width="3" stroke-linecap="round" stroke-linejoin="round"/>
<circle cx="11.4999" cy="11.5" r="1.91667" fill="#FEBE4F"/>
<ellipse cx="11.4999" cy="34.5" rx="1.91667" ry="1.91667" fill="#FEBE4F"/>
</svg>
