<?xml version="1.0" encoding="utf-8"?>
<!-- Generator: Adobe Illustrator 24.2.3, SVG Export Plug-In . SVG Version: 6.00 Build 0)  -->
<svg version="1.1" id="Livello_1" xmlns="http://www.w3.org/2000/svg" xmlns:xlink="http://www.w3.org/1999/xlink" x="0px" y="0px"
	 viewBox="0 0 292.5 70" style="enable-background:new 0 0 292.5 70;" xml:space="preserve">
<style type="text/css">
	.st0{fill:#634E42;}
	.st1{fill:#A48A7B;}
	.st2{fill:#7B6A58;}
	.st3{fill:none;stroke:#634E42;stroke-width:0.25;stroke-miterlimit:10;}
	.st4{fill:url(#SVGID_1_);}
	.st5{fill:url(#SVGID_2_);}
	.st6{fill:url(#SVGID_3_);}
	.st7{fill:url(#SVGID_4_);}
</style>
<g id="New_Symbol">
	<g>
		<path class="st0" d="M97.9,16.7l-2.5,2.5c-2.5-2.5-5.5-3.7-8.8-3.7c-2.9,0-5.3,0.9-7.3,2.8c-1.9,1.9-2.9,4.2-2.9,7
			c0,2.5,0.9,4.7,2.8,6.6c1.9,2,4.5,3,7.8,3c5,0,8.1-2.2,9.4-6.5h-6.7V25h10.6c0,1.7-0.1,3.1-0.3,4.1c-0.2,1-0.7,2.1-1.4,3.4
			c-0.7,1.2-1.7,2.3-2.9,3.3s-2.5,1.7-3.8,2.1c-1.4,0.4-3,0.6-4.9,0.6c-4.3,0-7.7-1.3-10.3-4c-2.6-2.7-3.8-5.8-3.8-9.3
			c0-3.7,1.3-6.8,3.9-9.3c2.6-2.6,5.8-3.9,9.5-3.9c2.2,0,4.2,0.3,6.1,1C94.1,13.6,96,14.8,97.9,16.7z"/>
		<path class="st0" d="M107.1,12.7h3.4v24.9h-3.4V12.7z"/>
		<path class="st0" d="M118,12.7h13.8v3.4h-10.4v6.2h10.4v3.4h-10.4v8.6h10.4v3.4H118V12.7z"/>
		<path class="st0" d="M153.4,15.4l-2.8,2.2c-0.7-0.8-1.4-1.3-2-1.7c-0.6-0.4-1.4-0.6-2.6-0.6c-1.2,0-2.2,0.3-3,0.8
			c-0.8,0.6-1.1,1.3-1.1,2.1c0,0.8,0.3,1.4,1,2c0.7,0.6,1.8,1.2,3.4,1.9c1.6,0.7,2.8,1.3,3.7,1.9c0.9,0.6,1.6,1.2,2.2,2
			c0.6,0.7,1,1.5,1.3,2.3c0.3,0.8,0.4,1.6,0.4,2.5c0,2.1-0.8,3.8-2.3,5.3c-1.5,1.5-3.3,2.2-5.5,2.2c-2.1,0-3.9-0.6-5.5-1.7
			c-1.6-1.1-2.8-2.8-3.7-5.1l3.4-1c1.2,2.8,3.1,4.2,5.7,4.2c1.2,0,2.3-0.4,3.1-1.1s1.2-1.7,1.2-2.8c0-0.7-0.2-1.4-0.6-2
			c-0.4-0.7-1-1.2-1.6-1.7c-0.6-0.4-1.7-0.9-3-1.5c-1.4-0.6-2.5-1.1-3.2-1.6c-0.8-0.5-1.4-1-2-1.7c-0.5-0.7-1-1.3-1.2-2
			c-0.3-0.7-0.4-1.3-0.4-2.1c0-1.8,0.7-3.3,2.1-4.6c1.4-1.3,3.2-1.9,5.2-1.9c1.4,0,2.7,0.3,4.1,0.9
			C151.3,13.4,152.5,14.2,153.4,15.4z"/>
		<path class="st0" d="M175.1,15.4l-2.8,2.2c-0.7-0.8-1.4-1.3-2-1.7c-0.6-0.4-1.4-0.6-2.6-0.6c-1.2,0-2.2,0.3-3,0.8
			c-0.8,0.6-1.1,1.3-1.1,2.1c0,0.8,0.3,1.4,1,2c0.7,0.6,1.8,1.2,3.4,1.9c1.6,0.7,2.8,1.3,3.7,1.9c0.9,0.6,1.6,1.2,2.2,2
			c0.6,0.7,1,1.5,1.3,2.3c0.3,0.8,0.4,1.6,0.4,2.5c0,2.1-0.8,3.8-2.3,5.3c-1.5,1.5-3.3,2.2-5.5,2.2c-2.1,0-3.9-0.6-5.5-1.7
			c-1.6-1.1-2.8-2.8-3.7-5.1l3.4-1c1.2,2.8,3.1,4.2,5.7,4.2c1.2,0,2.3-0.4,3.1-1.1s1.2-1.7,1.2-2.8c0-0.7-0.2-1.4-0.6-2
			c-0.4-0.7-1-1.2-1.6-1.7c-0.6-0.4-1.7-0.9-3-1.5c-1.4-0.6-2.5-1.1-3.2-1.6c-0.8-0.5-1.4-1-2-1.7c-0.5-0.7-1-1.3-1.2-2
			c-0.3-0.7-0.4-1.3-0.4-2.1c0-1.8,0.7-3.3,2.1-4.6c1.4-1.3,3.2-1.9,5.2-1.9c1.4,0,2.7,0.3,4.1,0.9C173,13.4,174.2,14.2,175.1,15.4z
			"/>
		<path class="st0" d="M181.3,12.7h13.8v3.4h-10.4v6.2h10.4v3.4h-10.4v8.6h10.4v3.4h-13.8V12.7z"/>
		<path class="st1" d="M201.5,12.7h6c4.8,0,8.3,1.3,10.7,3.8c2.3,2.5,3.5,5.4,3.5,8.7c0,3.3-1.2,6.2-3.6,8.7
			c-2.4,2.5-5.9,3.8-10.5,3.8h-6.1V12.7z M204.9,16v18.2h0.2c2.5,0,4.4-0.1,5.7-0.3c1.3-0.2,2.5-0.7,3.6-1.5
			c1.1-0.8,2.1-1.8,2.7-3.1c0.7-1.3,1-2.7,1-4.2c0-1.9-0.5-3.6-1.6-5.2c-1.1-1.5-2.4-2.6-3.9-3.1c-1.5-0.5-3.5-0.8-6.1-0.8H204.9z"
			/>
		<path class="st1" d="M236.5,11.7l11.7,25.8h-3.6l-2.9-6.4h-10.6l-2.9,6.4h-3.5L236.5,11.7z M236.5,19.5l-4,8.9h8L236.5,19.5z"/>
		<path class="st1" d="M250.3,12.7h15.2v3.4h-5.9v21.5h-3.4V16.1h-5.9V12.7z"/>
		<path class="st1" d="M271.7,12.7h3.4v24.9h-3.4V12.7z"/>
	</g>
	<g>
		<path class="st2" d="M75,54l-1,0.8c-0.3-0.3-0.5-0.5-0.7-0.6S72.8,54,72.5,54c-0.4,0-0.8,0.1-1,0.3C71.1,54.5,71,54.7,71,55
			c0,0.3,0.1,0.5,0.3,0.7c0.2,0.2,0.6,0.4,1.2,0.7s1,0.5,1.3,0.7c0.3,0.2,0.6,0.4,0.8,0.7s0.3,0.5,0.4,0.8c0.1,0.3,0.1,0.6,0.1,0.9
			c0,0.7-0.3,1.3-0.8,1.9c-0.5,0.5-1.2,0.8-1.9,0.8c-0.7,0-1.4-0.2-1.9-0.6s-1-1-1.3-1.8l1.2-0.3c0.4,1,1.1,1.5,2,1.5
			c0.4,0,0.8-0.1,1.1-0.4c0.3-0.3,0.4-0.6,0.4-1c0-0.2-0.1-0.5-0.2-0.7c-0.2-0.2-0.3-0.4-0.6-0.6c-0.2-0.2-0.6-0.3-1.1-0.5
			c-0.5-0.2-0.9-0.4-1.1-0.5c-0.3-0.2-0.5-0.4-0.7-0.6c-0.2-0.2-0.3-0.5-0.4-0.7c-0.1-0.2-0.1-0.5-0.1-0.7c0-0.6,0.3-1.2,0.8-1.6
			s1.1-0.7,1.8-0.7c0.5,0,1,0.1,1.4,0.3S74.7,53.6,75,54z"/>
		<path class="st2" d="M79.1,57.3c0-1.3,0.5-2.3,1.4-3.2s2.1-1.3,3.4-1.3c1.3,0,2.4,0.5,3.4,1.4s1.4,2,1.4,3.2
			c0,1.3-0.5,2.4-1.4,3.3S85.3,62,83.9,62c-1.3,0-2.5-0.5-3.4-1.4C79.6,59.7,79.1,58.6,79.1,57.3z M87.4,57.4c0-1-0.3-1.8-1-2.4
			s-1.5-1-2.6-1c-1,0-1.8,0.3-2.5,1s-1,1.5-1,2.4c0,1,0.4,1.8,1.1,2.4s1.6,1,2.6,1c0.9,0,1.7-0.3,2.4-1S87.4,58.3,87.4,57.4z"/>
		<path class="st2" d="M93,53h4.8v1.2h-3.7v2.2h3.7v1.2h-3.6v4.2H93V53z"/>
		<path class="st2" d="M101.4,53h5.3v1.2h-2.1v7.5h-1.2v-7.5h-2.1V53z"/>
		<path class="st2" d="M117,52.7l2.8,6.4l2.6-6.1h1.2l-3.9,9l-2.8-6.4l-2.8,6.4l-3.9-9h1.2l2.7,6.1L117,52.7z"/>
		<path class="st2" d="M129.9,52.7l4.1,9h-1.2l-1-2.2h-3.7l-1,2.2h-1.2L129.9,52.7z M129.9,55.4l-1.4,3.1h2.8L129.9,55.4z"/>
		<path class="st2" d="M138.1,53h1.9c0.9,0,1.7,0.2,2.3,0.7c0.6,0.5,0.9,1.1,0.9,1.8c0,0.6-0.2,1.1-0.6,1.5c-0.4,0.4-1,0.8-1.8,0.9
			l2.5,3.7H142l-2.4-3.6h-0.3v3.6h-1.2V53z M139.3,54.1v3c1.8,0,2.6-0.5,2.6-1.5c0-0.4-0.1-0.7-0.3-0.9s-0.5-0.4-0.8-0.5
			S140,54.1,139.3,54.1z"/>
		<path class="st2" d="M147.6,53h4.8v1.2h-3.7v2.2h3.7v1.2h-3.7v3h3.7v1.2h-4.8V53z"/>
		<path class="st2" d="M166.9,57l1.8,1.9l1-1.1l0.8,0.8l-1,1.2l1.8,1.9h-1.6l-1-1.1c-1,0.9-1.9,1.4-2.9,1.4c-0.8,0-1.5-0.2-2.1-0.7
			c-0.6-0.5-0.9-1.1-0.9-1.8c0-0.5,0.1-0.9,0.4-1.3c0.3-0.3,0.9-0.8,1.8-1.5c-0.1-0.1-0.2-0.2-0.2-0.3c-0.4-0.5-0.6-0.9-0.7-1.1
			c-0.1-0.2-0.1-0.5-0.1-0.6c0-0.5,0.2-1,0.6-1.4c0.4-0.4,0.9-0.6,1.6-0.6c0.6,0,1.1,0.2,1.5,0.6s0.6,0.9,0.6,1.5
			C168.4,55.6,167.9,56.3,166.9,57z M168,59.8l-2-2.2c-0.8,0.5-1.3,0.9-1.5,1.1c-0.2,0.3-0.3,0.5-0.3,0.8c0,0.4,0.2,0.7,0.5,1
			c0.3,0.3,0.7,0.4,1.2,0.4c0.4,0,0.7-0.1,1-0.3C167.2,60.4,167.6,60.2,168,59.8z M166.1,56.2c0.4-0.3,0.7-0.5,0.9-0.7
			s0.3-0.4,0.3-0.7c0-0.3-0.1-0.5-0.3-0.7s-0.4-0.3-0.8-0.3c-0.3,0-0.5,0.1-0.7,0.2s-0.3,0.4-0.3,0.6
			C165.2,55.1,165.5,55.6,166.1,56.2z"/>
		<path class="st2" d="M188.1,52.7l2.8,6.4l2.6-6.1h1.2l-3.9,9l-2.8-6.4l-2.8,6.4l-3.9-9h1.2l2.7,6.1L188.1,52.7z"/>
		<path class="st2" d="M198.8,53h4.8v1.2h-3.7v2.2h3.7v1.2h-3.7v3h3.7v1.2h-4.8V53z"/>
		<path class="st2" d="M207.9,53h1.4c0.9,0,1.6,0.2,2.2,0.6s0.9,0.9,0.9,1.5c0,0.7-0.4,1.3-1.3,1.8c1.3,0.4,2,1.2,2,2.3
			c0,0.8-0.3,1.4-1,1.8s-1.6,0.7-2.7,0.7h-1.4V53z M209.1,54.1v2.6c0.7,0,1.2-0.1,1.5-0.4s0.5-0.6,0.5-1c0-0.4-0.2-0.7-0.5-0.9
			s-0.7-0.3-1.3-0.3C209.3,54.1,209.2,54.1,209.1,54.1z M209.1,57.7v3h0.1c1,0,1.7-0.2,2.1-0.5s0.6-0.7,0.6-1c0-0.5-0.2-0.8-0.6-1.1
			s-1-0.4-1.7-0.4H209.1z"/>
		<path class="st2" d="M224.2,53h2.1c1.7,0,2.9,0.4,3.7,1.3s1.2,1.9,1.2,3c0,1.1-0.4,2.2-1.3,3s-2.1,1.3-3.7,1.3h-2.1V53z
			 M225.4,54.2v6.4h0.1c0.9,0,1.5,0,2-0.1s0.9-0.3,1.3-0.5s0.7-0.6,1-1.1s0.4-0.9,0.4-1.5c0-0.7-0.2-1.3-0.6-1.8s-0.8-0.9-1.4-1.1
			s-1.2-0.3-2.1-0.3H225.4z"/>
		<path class="st2" d="M235.3,53h4.8v1.2h-3.7v2.2h3.7v1.2h-3.7v3h3.7v1.2h-4.8V53z"/>
		<path class="st2" d="M249.7,54l-1,0.8c-0.3-0.3-0.5-0.5-0.7-0.6s-0.5-0.2-0.9-0.2c-0.4,0-0.8,0.1-1,0.3c-0.3,0.2-0.4,0.4-0.4,0.7
			c0,0.3,0.1,0.5,0.3,0.7c0.2,0.2,0.6,0.4,1.2,0.7s1,0.5,1.3,0.7c0.3,0.2,0.6,0.4,0.8,0.7s0.3,0.5,0.4,0.8c0.1,0.3,0.1,0.6,0.1,0.9
			c0,0.7-0.3,1.3-0.8,1.9c-0.5,0.5-1.2,0.8-1.9,0.8c-0.7,0-1.4-0.2-1.9-0.6s-1-1-1.3-1.8l1.2-0.3c0.4,1,1.1,1.5,2,1.5
			c0.4,0,0.8-0.1,1.1-0.4c0.3-0.3,0.4-0.6,0.4-1c0-0.2-0.1-0.5-0.2-0.7c-0.2-0.2-0.3-0.4-0.6-0.6c-0.2-0.2-0.6-0.3-1.1-0.5
			c-0.5-0.2-0.9-0.4-1.1-0.5c-0.3-0.2-0.5-0.4-0.7-0.6c-0.2-0.2-0.3-0.5-0.4-0.7c-0.1-0.2-0.1-0.5-0.1-0.7c0-0.6,0.3-1.2,0.8-1.6
			s1.1-0.7,1.8-0.7c0.5,0,1,0.1,1.4,0.3S249.4,53.6,249.7,54z"/>
		<path class="st2" d="M254.1,53h1.2v8.7h-1.2V53z"/>
		<path class="st2" d="M268.4,54.4l-0.9,0.9c-0.9-0.9-1.9-1.3-3.1-1.3c-1,0-1.9,0.3-2.5,1s-1,1.5-1,2.5c0,0.9,0.3,1.6,1,2.3
			s1.6,1,2.7,1c1.7,0,2.8-0.8,3.3-2.3h-2.4v-1.2h3.7c0,0.6,0,1.1-0.1,1.4s-0.2,0.7-0.5,1.2s-0.6,0.8-1,1.2s-0.9,0.6-1.3,0.7
			c-0.5,0.1-1,0.2-1.7,0.2c-1.5,0-2.7-0.5-3.6-1.4s-1.3-2-1.3-3.2c0-1.3,0.5-2.4,1.4-3.3s2-1.3,3.3-1.3c0.8,0,1.5,0.1,2.1,0.4
			S267.7,53.8,268.4,54.4z"/>
		<path class="st2" d="M273.5,52.7l6.4,6.6V53h1.2v9.1l-6.4-6.6v6.2h-1.2V52.7z"/>
	</g>
	<line class="st3" x1="68.8" y1="45.9" x2="281.4" y2="45.9"/>
	<g>
		<g>
			<linearGradient id="SVGID_1_" gradientUnits="userSpaceOnUse" x1="17.8361" y1="50.8568" x2="57.7466" y2="19.6753">
				<stop  offset="0" style="stop-color:#1D71B8"/>
				<stop  offset="3.962049e-02" style="stop-color:#1279B7"/>
				<stop  offset="0.1287" style="stop-color:#0089B1"/>
				<stop  offset="0.2192" style="stop-color:#0094A9"/>
				<stop  offset="0.3107" style="stop-color:#009CA1"/>
				<stop  offset="0.4035" style="stop-color:#00A09C"/>
				<stop  offset="0.5" style="stop-color:#00A19A"/>
				<stop  offset="0.6659" style="stop-color:#00A09B"/>
				<stop  offset="0.752" style="stop-color:#009D9F"/>
				<stop  offset="0.8198" style="stop-color:#0099A5"/>
				<stop  offset="0.878" style="stop-color:#0091AB"/>
				<stop  offset="0.93" style="stop-color:#0087B2"/>
				<stop  offset="0.977" style="stop-color:#1279B7"/>
				<stop  offset="1" style="stop-color:#1D71B8"/>
			</linearGradient>
			<path class="st4" d="M27.9,13.1c4.1-2.3,9.1-3.2,14-2.5c2.4,0.3,4.8,1.1,7.1,2.2c1.1,0.5,2.2,1.2,3.2,2c1.1,0.7,2,1.6,2.9,2.4
				c1.8,1.8,3.3,3.9,4.5,6.2c1.2,2.3,1.9,4.8,2.3,7.3c0.4,2.5,0.4,5.2-0.1,7.7c-0.5,2.5-1.3,5-2.5,7.3c-2.4,4.6-6.4,8.3-11,10.6
				c-2.3,1.1-4.8,1.9-7.3,2.2c-2.5,0.3-5.1,0.3-7.6-0.2c-5-0.9-9.6-3.4-13-7c-3.4-3.6-5.5-8.2-5.9-12.9c1.5,4.5,4.1,8.4,7.6,11.1
				c3.5,2.8,7.6,4.5,11.9,4.9c2.1,0.2,4.3,0.1,6.3-0.3c2.1-0.4,4.1-1.1,5.9-2.1c1.9-0.9,3.5-2.2,5-3.7c1.5-1.4,2.7-3.2,3.7-5
				c1-1.8,1.7-3.8,2.1-5.8c0.2-1,0.3-2.1,0.4-3.1l0-1.6c0-0.5-0.1-1-0.1-1.6c-0.2-2.1-0.7-4.1-1.6-6.1c-0.9-1.9-2-3.7-3.3-5.4
				c-2.8-3.2-6.6-5.7-10.8-6.9C37.1,11.8,32.4,11.8,27.9,13.1z"/>
		</g>
		<g>
			<linearGradient id="SVGID_2_" gradientUnits="userSpaceOnUse" x1="20.7626" y1="46.0425" x2="52.3834" y2="21.3376">
				<stop  offset="0" style="stop-color:#F39200"/>
				<stop  offset="0.1403" style="stop-color:#F9AF00"/>
				<stop  offset="0.2766" style="stop-color:#FDC400"/>
				<stop  offset="0.3955" style="stop-color:#FFD000"/>
				<stop  offset="0.4839" style="stop-color:#FFD400"/>
				<stop  offset="0.7238" style="stop-color:#FBB800"/>
				<stop  offset="0.9946" style="stop-color:#F39200"/>
			</linearGradient>
			<path class="st5" d="M50.6,46c-2.4,2.9-5.8,4.9-9.6,5.9c-3.8,1-7.8,0.8-11.6-0.4c-3.8-1.2-7.2-3.7-9.7-7
				c-2.4-3.3-3.7-7.6-3.3-11.7c0.2-2.1,0.7-4.1,1.6-6c0.9-1.9,2.1-3.6,3.5-5c2.9-2.8,6.6-4.8,10.6-5.5c3.9-0.8,8-0.3,11.6,1.1
				c3.6,1.5,6.7,4,8.6,7.2c-2.6-2.7-5.8-4.5-9.2-5.3c-1.7-0.4-3.5-0.7-5.2-0.6c-0.9,0-1.7,0.1-2.6,0.2c-0.8,0.1-1.7,0.3-2.5,0.5
				c-3.3,0.9-6.3,2.6-8.5,5.1c-1.1,1.2-2,2.6-2.7,4c-0.7,1.5-1.1,3.1-1.2,4.7c-0.4,3.2,0.6,6.5,2.4,9.2c0.9,1.4,2,2.6,3.3,3.6
				c1.3,1.1,2.8,1.9,4.3,2.6C36.7,51.2,44.6,50.5,50.6,46z"/>
		</g>
		<g>
			
				<radialGradient id="SVGID_3_" cx="40.1697" cy="37.2802" r="12.6746" gradientTransform="matrix(1 0 0 0.9053 0 0)" gradientUnits="userSpaceOnUse">
				<stop  offset="0" style="stop-color:#FFDE00"/>
				<stop  offset="0.5269" style="stop-color:#FAF087"/>
				<stop  offset="0.8098" style="stop-color:#FFE43E"/>
				<stop  offset="0.9946" style="stop-color:#FFDE00"/>
			</radialGradient>
			<path class="st6" d="M52,24c-7.4-2.9-16.3-0.1-20.2,6.1c-0.9,1.5-1.5,3.2-1.4,4.9c0,1.7,0.6,3.4,1.6,4.7c1,1.3,2.4,2.5,4,3.1
				c1.5,0.7,3.3,0.8,5,0.6c1.7-0.2,3.3-0.9,4.7-2c0.7-0.5,1.2-1.2,1.7-1.8c0.4-0.7,0.7-1.4,0.8-2.1c0.2-1.5-0.3-3.1-1.5-4.2
				c-1.2-1.1-2.8-1.7-4.5-1.6c-1.7,0.1-3.3,0.9-4.2,2.3c-0.5,0.6-0.7,1.4-0.6,2.2c0.1,0.8,0.5,1.5,1.1,2.1c1.2,1.2,3.3,1.3,4.8,0.4
				c0.7-0.5,1.4-1.2,1.4-2.1c0.1-0.9-0.5-1.8-1.3-2.3c0.9,0.3,1.7,1.2,1.8,2.3c0.1,1.1-0.6,2.1-1.4,2.8c-0.8,0.7-1.9,1.1-3,1.1
				c-1.1,0-2.3-0.3-3.2-1c-0.9-0.7-1.6-1.7-1.9-2.9c-0.2-1.2,0-2.5,0.7-3.5c1.2-2,3.4-3.2,5.6-3.5c1.1-0.2,2.3-0.1,3.4,0.3
				c1.1,0.4,2.1,0.9,3,1.7c1.8,1.5,2.9,4,2.6,6.5c-0.1,1.2-0.6,2.4-1.2,3.4c-0.6,1-1.4,1.8-2.3,2.5c-1.8,1.4-3.9,2.3-6.1,2.6
				c-2.2,0.3-4.5,0.1-6.6-0.9c-2-0.9-3.9-2.3-5.2-4.1c-1.3-1.9-2-4.1-1.9-6.4c0-2.3,0.9-4.4,2.1-6.2C35,21.8,45.2,20,52,24z"/>
		</g>
		<g>
			<linearGradient id="SVGID_4_" gradientUnits="userSpaceOnUse" x1="10.0433" y1="53.5404" x2="60.7133" y2="13.2947">
				<stop  offset="0" style="stop-color:#29235C"/>
				<stop  offset="0.5161" style="stop-color:#1D71B8"/>
				<stop  offset="1" style="stop-color:#29235C"/>
			</linearGradient>
			<path class="st7" d="M57.2,53.5c-3.7,4.7-9.1,8.1-15.1,9.8c-6,1.7-12.6,1.4-18.7-0.7c-3-1.1-5.9-2.6-8.5-4.6
				c-2.6-2-4.8-4.4-6.6-7.2c-1.8-2.7-3.1-5.8-3.9-9c-0.8-3.2-1.1-6.5-0.7-9.8c0-0.8,0.2-1.6,0.4-2.4c0.2-0.8,0.3-1.6,0.5-2.4
				l0.7-2.4l0.9-2.3c1.4-3,3.2-5.7,5.4-8.2c2.2-2.4,4.8-4.4,7.5-6.1C22,6.7,25,5.6,28.1,4.8c6.2-1.5,12.8-1,18.6,1.3
				c5.8,2.3,10.8,6.5,13.7,11.7c-4-4.4-9.1-7.5-14.6-8.9c-5.5-1.4-11.2-1.2-16.5,0.4c-2.6,0.9-5.1,2-7.4,3.5
				c-2.2,1.5-4.3,3.3-6.1,5.3c-3.5,4.1-5.7,9.2-6.2,14.4c-0.3,2.6-0.1,5.3,0.5,7.9c0.6,2.6,1.6,5.1,3,7.3c1.4,2.3,3.1,4.3,5.1,6.1
				c2.1,1.7,4.4,3.2,6.9,4.3c5,2.2,10.7,3,16.3,2.2C47.1,59.7,52.6,57.2,57.2,53.5z"/>
		</g>
	</g>
</g>
</svg>
