<?xml version="1.0" encoding="utf-8"?>
<!-- Generator: Adobe Illustrator 25.0.1, SVG Export Plug-In . SVG Version: 6.00 Build 0)  -->
<svg version="1.1" id="Capa_1" xmlns="http://www.w3.org/2000/svg" xmlns:xlink="http://www.w3.org/1999/xlink" x="0px" y="0px"
	 viewBox="0 0 512 512" style="enable-background:new 0 0 512 512;" xml:space="preserve">
<g>
	<g>
		<path d="M0,173.3l0,232C0,446.5,33.5,480,74.7,480h362.7c41.2,0,74.7-33.5,74.7-74.7V192c0-41.2-33.5-74.7-74.7-74.7H293
			c-12.2,0-23.2-6.8-28.6-17.7l-19.1-38.2C236.2,43.3,217.9,32,197.6,32H79.7C59.4,32,41.1,43.3,32,61.5L21.4,82.7
			C7.4,110.7,0,142,0,173.3z M106.7,320c0-41.2,33.5-74.7,74.7-74.7c1.9,0,3.9,0.1,5.8,0.3c17.8-26.7,47.6-42.9,79.6-42.9
			c49.7,0,90.6,37.9,95.5,86.3c24.6,4.8,43.2,26.4,43.2,52.4c0,29.4-23.9,53.3-53.3,53.3H181.3C140.2,394.7,106.7,361.2,106.7,320z"
			/>
	</g>
</g>
</svg>
