<?xml version="1.0" encoding="iso-8859-1"?>
<!-- Generator: Adobe Illustrator 19.0.0, SVG Export Plug-In . SVG Version: 6.00 Build 0)  -->
<svg version="1.1" id="Capa_1" xmlns="http://www.w3.org/2000/svg" xmlns:xlink="http://www.w3.org/1999/xlink" x="0px" y="0px"
	 viewBox="0 0 512 512" style="enable-background:new 0 0 512 512;" xml:space="preserve">
<g>
	<g>
		<path d="M416,288.01c-17.664,0-32,14.336-32,32s14.336,32,32,32h96v-64H416z"/>
	</g>
</g>
<g>
	<g>
		<path d="M416,256.01h64v-80c0-8.96-7.04-16-16-16h-32v-48c0-8.96-7.04-16-16-16h-38.08L350.4,40.97c-4.16-8-13.76-11.2-21.44-7.36
			l-37.12,18.56l-5.44-11.2c-4.16-8-13.76-11.2-21.44-7.36l-124.8,62.4H48c-26.56,0-48,21.44-48,48v288c0,26.56,21.44,48,48,48h416
			c8.96,0,16-7.04,16-16v-80h-64c-35.2,0-64-28.8-64-64C352,284.81,380.8,256.01,416,256.01z M400,128.01v12.16l-6.08-12.16H400z
			 M32.96,149.45c-0.64-1.6-0.96-3.52-0.96-5.44c0-8.96,7.04-16,16-16h28.16L32.96,149.45z M83.84,160.01l181.12-90.56l45.12,90.56
			H83.84z M345.92,160.01l-39.68-79.36l22.72-11.2l45.12,90.56H345.92z"/>
	</g>
</g>
<g>
</g>
<g>
</g>
<g>
</g>
<g>
</g>
<g>
</g>
<g>
</g>
<g>
</g>
<g>
</g>
<g>
</g>
<g>
</g>
<g>
</g>
<g>
</g>
<g>
</g>
<g>
</g>
<g>
</g>
</svg>
