<?xml version="1.0" encoding="iso-8859-1"?>
<!-- Generator: Adobe Illustrator 19.0.0, SVG Export Plug-In . SVG Version: 6.00 Build 0)  -->
<svg version="1.1" id="Capa_1" xmlns="http://www.w3.org/2000/svg" xmlns:xlink="http://www.w3.org/1999/xlink" x="0px" y="0px"
	 viewBox="0 0 512.005 512.005" style="enable-background:new 0 0 512.005 512.005;" xml:space="preserve">
<g>
	<g>
		<path d="M509.123,166.723l-80-112c-3.2-4.16-8-6.72-13.12-6.72h-320c-5.12,0-9.92,2.56-13.12,6.72l-80,112
			c-0.96,2.88-1.92,5.76-2.88,8.64c-0.32,35.52,28.48,64.64,64,64.64c19.2,0,36.16-8.32,48-21.76c11.84,13.44,28.8,21.76,48,21.76
			s36.16-8.32,48-21.76c11.84,13.44,28.8,21.76,48,21.76s36.16-8.32,48-21.76c11.84,13.44,28.8,21.76,48,21.76s36.16-8.32,48-21.76
			c11.84,13.44,28.8,21.76,48,21.76c35.52,0,64.32-29.12,64-64.64C511.043,172.483,510.083,169.603,509.123,166.723z"/>
	</g>
</g>
<g>
	<g>
		<path d="M448.003,272.003c-16.992,0-33.536-4.544-48-12.928c-28.928,16.736-67.072,16.736-96,0c-28.928,16.736-67.104,16.736-96,0
			c-28.896,16.736-67.104,16.736-96,0c-24.032,13.952-53.792,15.744-80,6.688v166.24c0,17.664,14.336,32,32,32h256v-160h96v160h32
			c17.664,0,32-14.336,32-32V266.147C469.827,269.763,459.107,272.003,448.003,272.003z M224.003,400.003h-128v-96h128V400.003z"/>
	</g>
</g>
<g>
</g>
<g>
</g>
<g>
</g>
<g>
</g>
<g>
</g>
<g>
</g>
<g>
</g>
<g>
</g>
<g>
</g>
<g>
</g>
<g>
</g>
<g>
</g>
<g>
</g>
<g>
</g>
<g>
</g>
</svg>
