<?xml version="1.0" ?><!DOCTYPE svg  PUBLIC '-//W3C//DTD SVG 1.1//EN'  'http://www.w3.org/Graphics/SVG/1.1/DTD/svg11.dtd'><svg enable-background="new 0 0 48 48" height="48px" version="1.1" viewBox="0 0 48 48" width="48px" xml:space="preserve" xmlns="http://www.w3.org/2000/svg" xmlns:xlink="http://www.w3.org/1999/xlink"><g id="Layer_3"><g><circle cx="23.926" cy="24.001" fill="#241F20" r="3.679"/><polygon fill="#241F20" points="43.328,22.198 42.23,22.198 38.521,22.198 36.832,22.198 33.122,22.198 33.122,25.801     37.34,25.801 38.521,25.801 42.23,25.801 43.473,25.801 47.84,25.801 47.84,22.198   "/><path d="M27.604,38.223v3.787c7.203-1.465,12.872-7.125,14.336-14.33h-3.787    C36.821,32.844,32.765,36.889,27.604,38.223z" fill="#241F20"/><polygon fill="#241F20" points="22.085,37.033 22.085,38.59 22.085,42.305 22.085,44.006 22.085,47.916 25.689,47.916     25.689,44.236 25.689,42.307 25.689,38.604 25.689,36.879 25.689,33.201 22.085,33.201   "/><path d="M9.707,27.68H5.912c1.464,7.201,7.128,12.875,14.333,14.338v-3.793    C15.085,36.893,11.039,32.838,9.707,27.68z" fill="#241F20"/><polygon fill="#241F20" points="10.971,25.801 14.878,25.801 14.878,22.198 10.55,22.198 9.329,22.198 5.619,22.198 4.493,22.198     0.16,22.198 0.16,25.801 3.768,25.801 5.619,25.801 9.329,25.801   "/><path d="M20.246,9.784V5.989C13.042,7.452,7.376,13.117,5.91,20.322h3.787    C11.028,15.159,15.085,11.115,20.246,9.784z" fill="#241F20"/><polygon fill="#241F20" points="25.726,13.153 25.726,9.405 25.726,5.695 25.726,4.568 25.726,0.083 22.124,0.083 22.124,3.993     22.124,5.695 22.124,9.405 22.124,11.66 22.124,14.802 25.726,14.802   "/><path d="M38.152,20.322h3.787c-1.462-7.205-7.133-12.87-14.336-14.333v3.795    C32.765,11.115,36.821,15.159,38.152,20.322z" fill="#241F20"/></g></g></svg>