<svg width="61" height="61" viewBox="0 0 61 61" fill="none" xmlns="http://www.w3.org/2000/svg">
<rect width="61" height="61" rx="30.5" fill="#EFFCEA"/>
<path d="M25.353 19.85V32.54C25.353 34.62 25.813 36.16 26.733 37.16C27.653 38.14 28.923 38.63 30.543 38.63C32.143 38.63 33.393 38.13 34.293 37.13C35.193 36.13 35.643 34.6 35.643 32.54V19.85H38.373V32.54C38.373 35.42 37.653 37.59 36.213 39.05C34.793 40.49 32.883 41.21 30.483 41.21C28.103 41.21 26.193 40.49 24.753 39.05C23.333 37.59 22.623 35.42 22.623 32.54V19.85H25.353Z" fill="#43CA5B"/>
</svg>
