<svg id="bold" enable-background="new 0 0 24 24" height="512" viewBox="0 0 24 24" width="512" xmlns="http://www.w3.org/2000/svg"><g><ellipse cx="12" cy="3" rx="12" ry="3"/><path d="m12 8c-6.627 0-12-1.343-12-3v7c0 1.657 5.373 3 12 3s12-1.343 12-3v-7c0 1.657-5.373 3-12 3zm-8.5 4c-.828 0-1.5-.672-1.5-1.5s.672-1.5 1.5-1.5 1.5.672 1.5 1.5-.672 1.5-1.5 1.5z"/><path d="m12 17c-6.627 0-12-1.343-12-3v7c0 1.657 5.373 3 12 3s12-1.343 12-3v-7c0 1.657-5.373 3-12 3zm-8.5 4c-.828 0-1.5-.672-1.5-1.5s.672-1.5 1.5-1.5 1.5.672 1.5 1.5-.672 1.5-1.5 1.5z"/></g></svg>