<?xml version="1.0" ?><svg id="Icons" style="enable-background:new 0 0 32 32;" version="1.1" viewBox="0 0 32 32" xml:space="preserve" xmlns="http://www.w3.org/2000/svg" xmlns:xlink="http://www.w3.org/1999/xlink"><style type="text/css">
	.st0{fill:none;stroke:#000000;stroke-width:2;stroke-linecap:round;stroke-linejoin:round;stroke-miterlimit:10;}
</style><path d="M26.9,2.5C26.7,2.2,26.4,2,26,2H14c-0.4,0-0.7,0.2-0.9,0.5l-7,13c-0.2,0.3-0.2,0.7,0,1C6.3,16.8,6.6,17,7,17h4.4L6.1,28.6  C5.9,29,6,29.5,6.4,29.8C6.5,29.9,6.8,30,7,30c0.2,0,0.4-0.1,0.6-0.2l18-13c0.4-0.3,0.5-0.7,0.4-1.1c-0.1-0.4-0.5-0.7-1-0.7h-4.3  l6.2-11.5C27,3.2,27,2.8,26.9,2.5z"/></svg>